<?xml version="1.0" encoding="iso-8859-1"?>
<!-- Generator: Adobe Illustrator 19.0.0, SVG Export Plug-In . SVG Version: 6.00 Build 0)  -->
<svg version="1.1" id="Capa_1" xmlns="http://www.w3.org/2000/svg" xmlns:xlink="http://www.w3.org/1999/xlink" x="0px" y="0px"
	 viewBox="0 0 491.52 491.52" style="enable-background:new 0 0 491.52 491.52;" xml:space="preserve">
<g>
	<circle style="fill:#EA8953;" cx="245.76" cy="245.76" r="245.76"/>
	<path style="fill:#EA8953;" d="M488.96,282.624L337.408,131.072l0,0c-0.512-4.608-8.704-6.656-14.336-7.68l-7.168-7.168l0,0
		c-5.632-7.68-15.872-3.072-20.992-0.512l-4.608-4.608l0,0c-4.608-4.096-17.92,0.512-25.088,3.584l-6.144-6.144l0,0
		c-3.584-3.072-11.776,0.512-16.384,3.072l-5.12-5.12l0,0c-5.12-6.144-17.408,2.56-17.408,2.56
		c-13.824-13.824-24.576,6.144-27.648,7.168c-18.432,7.168-9.216,13.824-9.216,13.824c-24.576-9.216-13.312,9.216-12.8,10.24
		c-30.208-11.776-20.992,30.208-20.992,30.208H138.24l29.696,208.384c0,1.536,1.024,3.072,2.048,4.608L276.48,489.472
		C385.536,476.16,472.576,390.656,488.96,282.624z"/>
</g>
<path style="opacity:0.1;enable-background:new    ;" d="M488.96,282.624L337.408,131.072l0,0c-0.512-4.608-8.704-6.656-14.336-7.68
	l-7.168-7.168l0,0c-5.632-7.68-15.872-3.072-20.992-0.512l-4.608-4.608l0,0c-4.608-4.096-17.92,0.512-25.088,3.584l-6.144-6.144l0,0
	c-3.584-3.072-11.776,0.512-16.384,3.072l-5.12-5.12l0,0c-5.12-6.144-17.408,2.56-17.408,2.56
	c-13.824-13.824-24.576,6.144-27.648,7.168c-18.432,7.168-9.216,13.824-9.216,13.824c-24.576-9.216-13.312,9.216-12.8,10.24
	c-30.208-11.776-20.992,30.208-20.992,30.208H138.24l29.696,208.384c0,1.536,1.024,3.072,2.048,4.608L276.48,489.472
	C385.536,476.16,472.576,390.656,488.96,282.624z"/>
<path style="fill:#D5D6DB;" d="M150.016,171.52c0,0-9.216-41.984,20.992-30.208c0,0-12.8-19.968,12.8-10.24
	c0,0-9.216-6.656,9.216-13.824c2.56-1.024,13.824-20.992,27.648-7.168c0,0,18.432-13.312,19.456,4.096
	c0,0,25.088-15.872,19.968,3.584c0,0,34.816-17.92,31.744,0c0,0,21.504-15.872,26.624,4.608c0,0,29.696,2.56,13.824,15.36
	c0,0,18.432,8.192,4.608,18.944c0,0,20.48,8.704,1.024,14.336H150.016V171.52z"/>
<path style="fill:#CE412D;" d="M313.344,386.56h-135.68c-4.608,0-9.216-3.584-9.728-7.68l-29.184-207.36H353.28l-29.184,206.848
	C323.072,382.976,318.464,386.56,313.344,386.56z"/>
<g>
	<polygon style="fill:#FFFFFF;" points="313.344,386.56 293.888,386.56 313.344,171.52 340.48,171.52 	"/>
	<polygon style="fill:#FFFFFF;" points="275.456,386.56 256,386.56 260.096,171.52 287.232,171.52 	"/>
	<polygon style="fill:#FFFFFF;" points="236.032,386.56 216.576,386.56 205.312,171.52 232.448,171.52 	"/>
	<polygon style="fill:#FFFFFF;" points="197.632,386.56 178.176,386.56 151.04,171.52 178.176,171.52 	"/>
	<path style="fill:#FFFFFF;" d="M227.328,137.728c2.048,3.072-0.512,7.68-4.096,9.216s-7.68,0.512-9.728-2.56
		c-1.024-1.536-4.096-4.608-5.632-4.608c-4.096-0.512-8.192,0.512-9.728-2.56c-1.536-3.072,0-7.168,3.072-9.728
		c3.584-3.072,10.752-8.192,14.336-10.24s9.216,0,10.752,3.584c1.536,3.072-3.072,5.12-4.096,9.216
		C221.184,131.584,225.792,135.68,227.328,137.728z"/>
</g>
<g>
	
		<rect x="212.468" y="123.31" transform="matrix(0.7786 -0.6276 0.6276 0.7786 -36.414 164.4143)" style="fill:#FCD462;" width="4.608" height="20.994"/>
	<polygon style="fill:#FCD462;" points="204.288,136.192 204.288,131.072 212.48,131.072 214.016,122.88 218.624,123.904 
		216.576,135.68 	"/>
</g>
<path style="fill:#FFFFFF;" d="M257.024,151.552c-2.56,2.56-7.68,1.024-9.728-2.56s-1.536-7.68,1.024-10.24
	c1.536-1.024,3.584-4.608,3.584-6.144c0-4.096-2.048-8.192,1.024-10.24s7.168-1.024,10.24,1.536
	c3.584,3.072,9.728,9.216,12.8,12.288c3.072,3.072,1.536,9.216-1.536,11.264s-5.632-2.048-9.728-2.56
	C262.144,144.384,259.072,149.504,257.024,151.552z"/>
<g>
	
		<rect x="248.054" y="135.716" transform="matrix(0.6663 -0.7457 0.7457 0.6663 -16.64 238.8565)" style="fill:#FCD462;" width="20.992" height="4.608"/>
	<polygon style="fill:#FCD462;" points="269.312,140.8 257.024,140.288 254.976,128.512 259.584,127.488 261.12,135.68 
		269.312,135.68 	"/>
</g>
<path style="fill:#FFFFFF;" d="M166.4,157.696c-3.584-1.024-4.608-5.632-3.072-9.728s5.632-5.632,9.216-4.608
	c1.536,0.512,5.632,0.512,7.168-0.512c3.584-2.56,5.632-6.144,9.216-4.608s4.608,5.632,4.096,9.728
	c-0.512,4.608-2.56,13.312-3.584,17.408c-1.024,4.096-7.168,6.144-10.24,4.608c-3.584-1.536-1.024-6.144-3.072-9.728
	C175.104,158.208,168.96,158.208,166.4,157.696z"/>
<g>
	
		<rect x="176.027" y="141.416" transform="matrix(0.168 -0.9858 0.9858 0.168 -1.3809 302.1874)" style="fill:#FCD462;" width="4.608" height="20.992"/>
	<polygon style="fill:#FCD462;" points="181.76,161.792 175.616,151.552 184.832,143.36 187.904,146.944 181.76,152.576 
		186.368,159.232 	"/>
</g>
<path style="fill:#FFFFFF;" d="M297.984,146.944c-3.072-2.048-2.048-7.168,1.024-10.24s7.168-3.072,10.24-1.024
	c1.536,1.024,5.12,2.56,7.168,2.56c4.096-1.024,7.68-3.584,10.24-1.024s2.56,6.656,0.512,10.24
	c-2.048,4.096-7.168,11.264-9.728,14.848s-8.704,3.072-11.264,0.512s1.024-6.144,1.024-10.24
	C306.176,150.528,300.032,148.48,297.984,146.944z"/>
<g>
	
		<rect x="308.591" y="135.396" transform="matrix(0.515 -0.8572 0.8572 0.515 25.7275 337.255)" style="fill:#FCD462;" width="4.608" height="20.992"/>
	<polygon style="fill:#FCD462;" points="310.784,156.672 308.736,144.384 320,140.288 322.048,144.896 314.368,147.456 
		315.392,155.648 	"/>
</g>
<path style="fill:#FFFFFF;" d="M229.376,168.448c-2.048,2.048-5.12,0.512-7.168-2.048c-1.536-2.56-1.024-5.632,0.512-7.168
	c1.024-1.024,2.56-3.072,2.56-4.608c0-3.072-1.536-5.632,0.512-7.168c2.048-1.536,5.12-0.512,7.168,1.024
	c2.56,2.048,6.656,6.144,8.704,8.704c2.048,2.048,1.024,6.656-1.024,7.68c-2.048,1.536-4.096-1.536-7.168-2.048
	C232.448,163.328,230.4,166.912,229.376,168.448z"/>
<g>
	
		<rect x="222.671" y="156.762" transform="matrix(0.6669 -0.7451 0.7451 0.6669 -41.8853 224.4308)" style="fill:#FCD462;" width="14.846" height="4.608"/>
	<polygon style="fill:#FCD462;" points="237.568,161.28 228.352,161.28 226.816,152.064 231.424,151.552 232.448,156.672 
		237.568,156.672 	"/>
</g>
<path style="fill:#FFFFFF;" d="M284.16,166.4c-2.048,2.048-5.12,0.512-7.168-2.048c-1.536-2.56-1.024-5.632,0.512-7.168
	c1.024-1.024,2.56-3.072,2.56-4.608c0-3.072-1.536-5.632,0.512-7.168s5.12-0.512,7.168,1.024c2.56,2.048,6.656,6.144,8.704,8.704
	c2.048,2.048,1.024,6.656-1.024,7.68c-2.048,1.536-4.096-1.536-7.168-2.048C287.232,161.28,285.184,165.376,284.16,166.4z"/>
<g>
	
		<rect x="277.362" y="154.768" transform="matrix(0.6663 -0.7457 0.7457 0.6663 -22.0916 264.7783)" style="fill:#FCD462;" width="14.848" height="4.608"/>
	<polygon style="fill:#FCD462;" points="292.352,159.744 283.136,159.232 281.6,150.528 286.208,149.504 287.232,154.624 
		292.352,154.624 	"/>
</g>
<g>
</g>
<g>
</g>
<g>
</g>
<g>
</g>
<g>
</g>
<g>
</g>
<g>
</g>
<g>
</g>
<g>
</g>
<g>
</g>
<g>
</g>
<g>
</g>
<g>
</g>
<g>
</g>
<g>
</g>
</svg>
