<?xml version="1.0" standalone="no"?>
<!DOCTYPE svg PUBLIC "-//W3C//DTD SVG 20010904//EN"
 "http://www.w3.org/TR/2001/REC-SVG-20010904/DTD/svg10.dtd">
<svg version="1.0" xmlns="http://www.w3.org/2000/svg"
 width="1056.000000pt" height="1280.000000pt" viewBox="0 0 1056.000000 1280.000000"
 preserveAspectRatio="xMidYMid meet">
<metadata>
Created by potrace 1.15, written by Peter Selinger 2001-2017
</metadata>
<g transform="translate(0.000000,1280.000000) scale(0.100000,-0.100000)"
fill="#000000" stroke="none">
<path d="M10255 12788 c-39 -21 -98 -84 -199 -213 -57 -71 -111 -142 -121
-157 -11 -18 -26 -28 -42 -28 -81 0 -685 -297 -1035 -508 -72 -44 -91 -51
-107 -43 -102 55 -431 -107 -1296 -639 -751 -461 -1023 -618 -1175 -679 -62
-25 -88 -29 -155 -29 -104 1 -187 -30 -453 -171 l-113 -60 40 44 c72 78 121
204 121 311 l0 51 92 33 c206 72 296 132 417 278 124 152 159 178 285 212 61
17 99 21 170 18 88 -3 93 -5 155 -46 80 -52 118 -54 287 -13 65 17 136 33 157
37 61 11 73 28 99 149 47 224 29 268 -128 310 -85 23 -265 30 -376 16 -218
-29 -476 -107 -599 -182 -38 -23 -127 -62 -197 -86 -123 -43 -491 -153 -512
-153 -5 0 -19 9 -29 19 -62 62 -329 73 -866 35 -254 -18 -392 -30 -1040 -94
-275 -27 -549 -54 -610 -59 -203 -19 -489 -32 -546 -26 l-56 7 -7 151 c-12
290 -45 559 -85 697 -11 36 -21 108 -24 160 -7 138 -45 214 -136 271 -87 56
-155 70 -399 81 -195 9 -234 8 -313 -6 -102 -19 -368 -110 -468 -161 -202
-101 -312 -245 -315 -410 -1 -67 7 -120 73 -481 76 -415 161 -712 229 -804 32
-43 41 -50 70 -50 12 0 22 -6 22 -12 0 -7 7 -83 15 -168 8 -85 18 -185 21
-221 l7 -66 -109 -97 c-60 -54 -181 -153 -269 -221 -181 -139 -234 -186 -294
-264 -99 -128 -122 -200 -220 -699 -125 -636 -156 -833 -181 -1151 -54 -708
111 -1182 475 -1356 114 -55 198 -75 311 -75 94 0 174 17 232 51 17 10 38 16
46 13 8 -3 38 23 77 69 58 67 68 74 104 75 22 1 87 7 145 12 58 5 195 10 305
10 342 0 757 25 935 55 244 42 416 124 493 238 15 22 27 48 27 59 0 31 51 22
118 -22 60 -38 62 -41 62 -82 0 -24 5 -131 10 -238 5 -107 14 -296 20 -420 45
-988 69 -1355 101 -1575 34 -233 162 -784 327 -1410 16 -60 51 -191 77 -290
100 -383 154 -567 172 -587 10 -11 36 -28 58 -38 l40 -17 33 -329 c48 -493 54
-581 50 -747 -5 -201 -6 -204 -239 -507 -44 -58 -99 -143 -122 -189 -39 -78
-42 -91 -42 -165 0 -71 4 -87 28 -128 34 -58 75 -82 128 -75 58 8 111 38 253
143 72 52 159 111 195 131 136 74 167 99 195 155 14 29 30 78 36 108 34 177
62 1277 42 1600 -5 85 -8 156 -7 158 7 8 441 192 510 216 44 16 112 31 150 35
l70 6 3 58 c5 95 -40 301 -178 812 -34 127 -78 289 -97 360 -18 72 -58 220
-88 330 -109 404 -224 876 -285 1170 -30 143 -80 416 -80 434 0 4 35 35 78 68
228 178 514 493 767 848 270 377 472 773 554 1085 49 189 68 380 36 380 -8 0
-15 -7 -15 -15 0 -19 -47 -42 -59 -29 -5 5 0 42 10 84 10 41 19 80 19 86 0 7
-51 14 -147 20 l-147 9 244 196 c700 559 1829 1411 2161 1630 21 13 93 63 160
110 259 180 510 332 650 392 113 49 123 48 116 -2 -6 -50 16 -64 32 -20 26 76
-31 306 -155 617 -46 116 -51 138 -38 145 41 23 232 158 434 306 520 381 654
446 910 439 l125 -3 6 45 c4 25 24 73 44 108 54 90 56 131 11 212 -20 36 -67
128 -105 206 -53 105 -76 143 -96 152 -32 15 -44 15 -70 0z m-8652 -2096 c48
-23 87 -43 87 -45 0 -3 -37 -38 -83 -80 l-82 -75 -75 55 c-41 30 -81 58 -89
62 -12 7 -11 17 8 62 13 30 29 64 37 76 l14 23 48 -19 c26 -10 86 -37 135 -59z
m3732 -560 c-6 -5 -57 -37 -115 -72 -338 -205 -815 -533 -998 -688 l-53 -44
-62 48 c-83 64 -318 253 -337 271 -9 8 12 4 51 -11 146 -55 338 -71 487 -40
99 20 218 76 335 157 162 112 277 179 487 284 203 102 223 111 205 95z m-3534
-2527 c123 -32 309 -131 599 -320 l130 -85 -21 -42 c-14 -28 -23 -68 -26 -122
-3 -45 -10 -89 -15 -99 -14 -26 -99 -63 -193 -82 -93 -20 -330 -24 -606 -11
l-176 8 19 51 c29 75 39 137 23 143 -7 3 -15 14 -18 25 -7 25 -37 24 -90 -3
-56 -28 -127 -30 -157 -3 -77 70 -129 318 -83 396 26 43 98 74 274 119 171 43
249 48 340 25z"/>
</g>
</svg>
